<svg xmlns="http://www.w3.org/2000/svg" viewBox="0 0 1024 1024">
    <path d="M698.810811 347.32973H390.227027h-1.383784c-16.605405 0-29.059459 12.454054-29.059459 29.059459 0 16.605405 12.454054 29.059459 29.059459 29.05946h311.351352c16.605405 0 29.059459-12.454054 29.059459-29.05946-1.383784-16.605405-13.837838-29.059459-30.443243-29.059459M698.810811 622.702703H390.227027h-1.383784c-16.605405 0-29.059459 13.837838-29.059459 29.059459 0 16.605405 12.454054 29.059459 29.059459 29.05946h311.351352c16.605405 0 29.059459-12.454054 29.059459-29.05946-1.383784-15.221622-13.837838-29.059459-30.443243-29.059459M618.551351 513.383784c0-15.221622-11.07027-27.675676-26.291892-29.05946H326.572973h-1.383784c-16.605405 0-29.059459 12.454054-29.059459 29.05946 0 16.605405 12.454054 29.059459 29.059459 29.059459h267.07027c13.837838-1.383784 26.291892-13.837838 26.291892-29.059459" fill="#00B173"></path><path d="M512 164.67027c-4.151351 0-8.302703 1.383784-12.454054 2.767568L218.637838 330.724324c-6.918919 4.151351-12.454054 12.454054-12.454054 20.756757v325.189189c0 8.302703 4.151351 16.605405 12.454054 20.756757l282.291892 163.286487c6.918919 4.151351 16.605405 4.151351 23.524324 0l282.291892-163.286487c6.918919-4.151351 12.454054-12.454054 12.454054-20.756757V351.481081c0-8.302703-4.151351-16.605405-12.454054-20.756757L524.454054 167.437838c-4.151351-1.383784-8.302703-2.767568-12.454054-2.767568m0 752.778379c-13.837838 0-26.291892-4.151351-38.745946-11.070271L190.962162 744.475676c-23.524324-13.837838-38.745946-40.12973-38.745946-67.805406V351.481081c0-27.675676 15.221622-53.967568 38.745946-67.805405L473.254054 121.772973c23.524324-13.837838 53.967568-13.837838 77.491892 0l282.291892 163.286486c23.524324 13.837838 38.745946 40.12973 38.745946 67.805406V678.054054c0 27.675676-15.221622 53.967568-38.745946 67.805405L550.745946 906.378378c-12.454054 6.918919-24.908108 11.07027-38.745946 11.070271" fill="#00B173"></path>
</svg>